<svg width="1440" height="654" viewBox="0 0 1440 654" fill="none" xmlns="http://www.w3.org/2000/svg">
<rect width="1440" height="654" fill="#F9F9FF"/>
<path d="M1385.91 617.684C1384.49 617.836 1383.05 617.767 1381.66 617.479C1377.43 616.587 1374.5 613.037 1372.35 610.453C1371.74 609.663 1371.07 608.917 1370.35 608.221C1369.64 607.589 1368.38 607.508 1366.77 607.405C1363.92 607.227 1360 606.978 1355.96 603.363C1354.62 602.213 1353.56 600.772 1352.86 599.151C1352.16 597.53 1351.84 595.771 1351.93 594.008C1352.15 589.976 1354.42 586.123 1358.16 583.437C1364.21 579.113 1366.94 574.52 1369.82 569.677C1370.09 569.207 1370.36 568.737 1370.66 568.261C1372.23 565.535 1374.25 563.098 1376.64 561.057C1379.22 559.02 1381.7 558.485 1383.81 559.501C1385.27 560.209 1386.29 564.089 1385.5 568.748C1384.91 572.255 1385.03 576.314 1386.43 577.233C1386.97 577.584 1387.72 577.449 1388.7 576.838C1390.7 575.584 1392.55 574.168 1394.34 572.806C1398.27 569.812 1401.37 567.451 1403.71 568.591C1407.94 570.65 1404.45 578.27 1401.65 584.393C1401.15 585.507 1400.67 586.555 1400.27 587.496C1399.14 590.171 1399.36 592.214 1399.66 594.791C1399.98 597.726 1400.35 601.05 1398.83 606.232C1397.5 610.718 1394.9 614.112 1391.26 616.047C1389.6 616.933 1387.78 617.489 1385.91 617.684ZM1381.21 560.095C1378.67 560.36 1375.27 562.727 1371.59 568.796C1371.3 569.272 1371.05 569.742 1370.75 570.212C1367.81 575.147 1365.03 579.811 1358.81 584.264C1355.32 586.766 1353.21 590.327 1353 594.035C1352.93 595.641 1353.22 597.243 1353.86 598.719C1354.5 600.194 1355.47 601.505 1356.69 602.552C1360.43 605.924 1363.99 606.151 1366.83 606.335C1368.57 606.449 1370.08 606.541 1371.05 607.416C1371.81 608.147 1372.52 608.931 1373.16 609.762C1375.21 612.231 1378.03 615.62 1381.88 616.431C1384.92 617.036 1388.08 616.564 1390.81 615.096C1394.17 613.301 1396.61 610.124 1397.84 605.908C1399.31 600.925 1398.92 597.715 1398.63 594.883C1398.34 592.257 1398.09 589.987 1399.32 587.063C1399.73 586.107 1400.21 585.047 1400.72 583.929C1403.19 578.524 1406.58 571.12 1403.27 569.51C1401.52 568.65 1398.5 570.953 1395 573.617C1393.27 574.93 1391.31 576.422 1389.28 577.703C1387.92 578.551 1386.77 578.681 1385.87 578.076C1383.88 576.752 1383.88 572.131 1384.49 568.548C1385.26 564.008 1384.16 560.798 1383.37 560.441C1382.7 560.128 1381.95 560.008 1381.21 560.095Z" fill="white"/>
<g style="mix-blend-mode:hard-light">
<path d="M1111.36 96.4732C1110.24 96.4674 1109.15 96.1531 1108.2 95.5653C1105.04 93.6468 1105.78 88.4585 1106.58 82.9623C1107 80.5301 1107.23 78.0692 1107.27 75.6015C1107.21 73.0453 1106.4 71.3375 1104.93 70.6511C1103.02 69.7594 1100.07 70.6511 1097.04 73.0831C1091.5 77.5147 1085.32 81.7301 1081.51 79.4333C1077.7 77.1364 1078.97 69.3163 1085.2 58.113C1088.44 52.3195 1088.62 46.3207 1088.81 40.5218C1088.98 35.2417 1089.15 30.2535 1091.66 26.0975C1094.88 20.7796 1099.67 17.083 1104.5 16.2075C1106.23 15.8819 1108.01 15.9401 1109.72 16.378C1111.43 16.8159 1113.02 17.6229 1114.39 18.7421C1118.39 21.8929 1119.65 25.2274 1120.77 28.216C1121.74 30.7885 1122.57 33.0097 1125.05 34.5013C1127.39 35.9172 1130.01 35.7119 1133.06 35.4687C1136.78 35.1768 1140.99 34.8472 1145.33 37.7331C1147.29 39.1051 1148.92 40.9067 1150.09 43.0013C1151.26 45.0959 1151.93 47.4287 1152.06 49.8227C1152.24 52.3255 1151.83 54.8352 1150.88 57.1557C1149.92 59.4761 1148.45 61.5443 1146.56 63.1985C1143.94 65.4578 1141.07 67.4173 1138.01 69.0406C1133.66 71.5104 1129.9 73.6452 1126.76 80.0439C1124.14 85.3564 1118.9 94.5277 1113.18 96.203C1112.59 96.3788 1111.97 96.4697 1111.36 96.4732ZM1108.75 94.6628C1109.36 95.0496 1110.05 95.2985 1110.76 95.3918C1111.48 95.4852 1112.2 95.4208 1112.89 95.2032C1116.84 94.0467 1121.43 88.5018 1125.81 79.59C1129.1 72.8994 1132.99 70.6944 1137.49 68.1381C1140.49 66.553 1143.29 64.6369 1145.86 62.4257C1147.63 60.8773 1149.01 58.9411 1149.91 56.7688C1150.8 54.5965 1151.18 52.2468 1151.01 49.9038C1150.89 47.6665 1150.26 45.4865 1149.17 43.5294C1148.08 41.5722 1146.56 39.8894 1144.72 38.6086C1140.68 35.9064 1136.84 36.2253 1133.12 36.5171C1130.03 36.7603 1127.11 36.9927 1124.47 35.4038C1121.68 33.7177 1120.74 31.2263 1119.76 28.5889C1118.67 25.7516 1117.48 22.5414 1113.7 19.5636C1112.45 18.54 1111 17.8016 1109.44 17.4002C1107.88 16.9987 1106.24 16.944 1104.66 17.2397C1100.13 18.0666 1095.6 21.5632 1092.55 26.6379C1090.17 30.5669 1090.01 35.42 1089.84 40.5542C1089.64 46.499 1089.44 52.6114 1086.1 58.621C1080.28 69.1055 1078.76 76.5527 1082.04 78.5307C1085.32 80.5087 1091.43 76.2068 1096.38 72.2671C1099.79 69.5541 1103.04 68.6407 1105.37 69.7216C1106.66 70.3215 1108.23 71.8347 1108.32 75.5961C1108.28 78.1328 1108.05 80.6628 1107.62 83.1623C1106.91 88.0262 1106.18 93.1117 1108.75 94.6628Z" fill="#27239E"/>
<path d="M749.872 76.861C746.288 75.9098 742.937 70.754 740.758 66.5927C738.656 62.5826 736.229 61.2856 733.413 59.7831C731.41 58.7825 729.523 57.5646 727.786 56.1514C726.526 55.1017 725.525 53.7753 724.861 52.2755C724.197 50.7757 723.889 49.143 723.959 47.5044C724.006 45.9301 724.41 44.3871 725.143 42.9926C725.875 41.5982 726.916 40.3891 728.186 39.4573C730.98 37.4901 733.732 37.636 736.153 37.7657C738.083 37.8684 739.748 37.9549 741.18 37.0416C742.694 36.0688 743.158 34.7285 743.753 33.0207C744.429 31.0751 745.191 28.8701 747.753 26.7408C748.629 25.9824 749.661 25.4249 750.776 25.1075C751.891 24.79 753.062 24.7204 754.207 24.9033C757.374 25.3951 760.569 27.7244 762.752 31.1346C764.466 33.8368 764.655 37.0361 764.86 40.4517C765.082 44.1591 765.309 48.0178 767.449 51.6225C771.693 58.8212 772.665 63.8905 770.114 65.5226C767.563 67.1547 763.493 64.4904 759.806 61.6909C757.877 60.2317 756.023 59.7021 754.888 60.2749C753.753 60.8478 753.569 62.2367 753.569 63.3284C753.637 64.9061 753.827 66.4762 754.136 68.0248C754.747 71.6079 755.326 74.9911 753.212 76.3421C752.556 76.7766 751.788 77.0096 751.001 77.0123C750.62 77.0088 750.241 76.9579 749.872 76.861Z" fill="#27239E"/>
<path d="M1356.17 152.824C1352.13 152.824 1346.68 147.609 1340.77 137.979C1337.16 132.066 1331.8 128.791 1326.61 125.635C1321.91 122.765 1317.46 120.052 1314.96 115.626C1311.78 109.973 1310.88 103.737 1312.56 98.8726C1313.16 97.1355 1314.13 95.5494 1315.4 94.2256C1316.67 92.9018 1318.22 91.8723 1319.93 91.2092C1324.86 89.188 1328.58 89.7663 1331.82 90.2743C1334.67 90.7174 1337.12 91.1011 1339.76 89.6149C1342.26 88.2098 1343.48 85.5887 1344.77 82.8108C1346.39 79.2818 1348.28 75.2826 1353.13 72.829C1355.39 71.7409 1357.86 71.1808 1360.37 71.1911C1362.87 71.2014 1365.34 71.7818 1367.59 72.8884C1369.96 74.0166 1372.03 75.6769 1373.65 77.7394C1375.27 79.8019 1376.39 82.2109 1376.92 84.778C1377.62 88.3256 1377.93 91.9396 1377.84 95.5544C1377.84 100.786 1377.84 105.282 1382.07 111.465C1385.56 116.577 1391.21 126.057 1389.79 132.11C1389.6 132.991 1389.22 133.821 1388.68 134.543C1388.14 135.265 1387.45 135.862 1386.66 136.293C1383.3 138.184 1378.97 134.839 1374.38 131.299C1372.38 129.664 1370.26 128.186 1368.03 126.878C1365.67 125.619 1363.71 125.473 1362.3 126.462C1360.49 127.754 1359.8 130.915 1360.44 134.92C1361.63 142.232 1362.29 150.009 1358.25 152.284C1357.61 152.642 1356.9 152.829 1356.17 152.824ZM1326.94 90.8634C1324.67 90.8618 1322.43 91.3138 1320.33 92.1928C1318.76 92.8007 1317.34 93.7442 1316.17 94.9577C1315 96.1712 1314.11 97.6253 1313.56 99.2185C1311.98 103.764 1312.85 109.703 1315.88 115.091C1318.23 119.28 1322.57 121.922 1327.16 124.722C1332.45 127.964 1337.92 131.288 1341.67 137.411C1348.23 148.117 1354.23 153.327 1357.74 151.354C1361.24 149.382 1360.47 141.627 1359.41 135.071C1358.69 130.596 1359.52 127.143 1361.69 125.592C1362.9 124.727 1365.07 124.089 1368.53 125.938C1370.81 127.268 1372.98 128.777 1375.02 130.45C1379.13 133.628 1383.39 136.909 1386.14 135.363C1386.81 135.004 1387.39 134.504 1387.84 133.897C1388.29 133.29 1388.61 132.591 1388.76 131.85C1389.74 127.656 1387.05 120.62 1381.19 112.043C1376.8 105.617 1376.79 100.948 1376.78 95.5381C1376.88 91.9978 1376.58 88.4572 1375.89 84.9834C1375.39 82.5766 1374.34 80.3185 1372.82 78.3855C1371.3 76.4524 1369.35 74.8967 1367.13 73.8396C1365.03 72.8033 1362.72 72.258 1360.38 72.2449C1358.04 72.2318 1355.73 72.7512 1353.62 73.7639C1349.09 76.0554 1347.39 79.7087 1345.74 83.254C1344.37 86.1886 1343.09 88.9556 1340.29 90.5283C1337.33 92.1982 1334.59 91.7659 1331.68 91.3119C1330.11 91.0372 1328.53 90.8872 1326.94 90.8634Z" fill="#27239E"/>
<path d="M710.229 263.312C712.094 266.89 709.975 274.121 704.148 283.811C700.57 289.755 700.138 296.014 699.722 302.067C699.343 307.568 698.986 312.767 696.208 317.021C692.662 322.425 687.522 326.127 682.457 326.862C680.638 327.138 678.781 327.012 677.016 326.493C675.251 325.974 673.621 325.074 672.242 323.857C668.177 320.42 666.982 316.869 665.928 313.735C665.009 311.033 664.22 308.655 661.685 307.001C659.28 305.428 656.393 305.552 653.334 305.688C649.442 305.855 645.037 306.05 640.621 302.877C638.615 301.376 636.977 299.437 635.831 297.209C634.686 294.98 634.063 292.52 634.01 290.015C633.919 287.397 634.433 284.794 635.514 282.408C636.596 280.022 638.214 277.918 640.243 276.261C643.068 274.003 646.135 272.065 649.388 270.484C654.026 268.062 658.037 265.965 661.561 259.394C664.485 253.941 670.29 244.564 676.317 243.024C677.187 242.785 678.098 242.737 678.988 242.884C679.878 243.03 680.726 243.367 681.474 243.872C684.717 245.98 683.733 251.368 682.701 257.07C682.169 259.596 681.838 262.16 681.711 264.739C681.679 267.441 682.463 269.246 683.982 270.019C685.96 271.029 689.084 270.186 692.338 267.765C698.284 263.344 704.884 259.172 708.77 261.707C709.39 262.103 709.893 262.657 710.229 263.312ZM668.706 317.783C669.752 319.799 671.191 321.585 672.939 323.036C674.204 324.152 675.698 324.978 677.316 325.456C678.934 325.934 680.637 326.052 682.306 325.803C687.073 325.111 691.944 321.603 695.327 316.421C697.96 312.4 698.305 307.336 698.673 301.975C699.1 295.792 699.538 289.404 703.246 283.249C709.732 272.499 711.581 264.766 708.213 262.566C704.846 260.367 698.311 264.631 692.987 268.587C689.349 271.289 685.9 272.148 683.528 270.932C682.203 270.262 680.636 268.63 680.679 264.706C680.81 262.07 681.148 259.448 681.69 256.864C682.614 251.747 683.565 246.456 680.922 244.732C680.298 244.304 679.586 244.019 678.839 243.896C678.092 243.774 677.327 243.817 676.598 244.024C672.42 245.105 667.409 250.714 662.507 259.869C658.826 266.727 654.691 268.889 649.896 271.391C646.707 272.937 643.701 274.835 640.935 277.05C639.03 278.606 637.511 280.58 636.495 282.82C635.48 285.059 634.996 287.503 635.081 289.961C635.128 292.305 635.708 294.607 636.778 296.693C637.847 298.78 639.378 300.595 641.253 302.002C645.378 304.985 649.41 304.812 653.323 304.639C656.566 304.499 659.604 304.364 662.291 306.12C665.134 307.974 666.02 310.611 666.955 313.4C667.424 314.904 668.01 316.369 668.706 317.783Z" fill="#27239E"/>
</g>
<path d="M1242.88 621.153C1239.84 619.759 1237.3 614.127 1235.17 609.436C1234.67 608.355 1234.2 607.302 1233.76 606.399C1232.5 603.826 1230.85 602.675 1228.74 601.222C1226.34 599.562 1223.63 597.687 1220.76 593.191C1218.28 589.305 1217.45 585.165 1218.35 581.225C1219.09 578.004 1220.93 575.139 1223.54 573.119C1226.94 570.557 1231.48 570.671 1234.8 570.757C1235.78 570.809 1236.77 570.794 1237.75 570.714C1238.68 570.595 1239.56 569.709 1240.67 568.552C1242.66 566.547 1245.37 563.802 1250.67 563.148C1252.39 562.897 1254.15 563.042 1255.81 563.573C1257.47 564.104 1258.98 565.007 1260.24 566.212C1263.09 568.99 1264.48 573.173 1264.06 577.696C1263.37 585.008 1265.01 589.991 1266.76 595.266C1266.93 595.779 1267.1 596.293 1267.27 596.812C1268.28 599.741 1268.78 602.824 1268.75 605.923C1268.6 609.166 1267.39 611.355 1265.26 612.263C1263.79 612.89 1260.23 611.139 1257.28 607.534C1255.06 604.832 1251.98 602.297 1250.39 602.729C1249.79 602.897 1249.39 603.545 1249.21 604.664C1248.85 606.961 1248.67 609.252 1248.55 611.468C1248.23 616.332 1247.98 620.169 1245.62 621.169C1245.19 621.366 1244.72 621.466 1244.25 621.463C1243.78 621.461 1243.31 621.355 1242.88 621.153Z" fill="#27239E"/>
</svg>
