<svg width="32" height="32" viewBox="0 0 32 32" fill="none" xmlns="http://www.w3.org/2000/svg">
<path d="M3.69023 24.9589C2.62093 24.9589 1.57626 24.6861 0.629489 24.1544C0.142362 23.9036 -0.0463111 23.2759 0.244698 22.8038C1.21159 21.2587 1.56073 19.3701 1.11804 17.594C0.659192 15.7526 -0.00472709 14.2018 2.53723e-05 12.2525C0.0165006 5.41364 5.70876 -0.130584 12.5407 0.00208839C19.1395 0.134999 24.5778 5.68207 24.5779 12.2826C24.5779 20.903 15.5437 26.9553 7.568 23.6264C6.46868 24.4893 5.0869 24.9589 3.69023 24.9589Z" fill="#6562E5"/>
<path d="M28.3097 32.0003C26.9131 32.0003 25.5313 31.5306 24.4321 30.6679C20.1905 32.4381 15.1452 31.6319 11.6674 28.6285C11.2701 28.2854 11.2262 27.6852 11.5692 27.2879C11.9124 26.8906 12.5125 26.8466 12.9098 27.1898C15.9943 29.8536 20.5116 30.4528 24.1877 28.6953C24.5458 28.5239 24.9728 28.5934 25.2584 28.8695C26.4169 29.9895 28.1067 30.3625 29.6091 29.8956C28.6423 27.8791 28.5084 25.5688 29.2576 23.43C29.2643 23.4108 29.2717 23.3919 29.2796 23.373C29.8268 22.0831 30.1025 20.7122 30.0991 19.2985C30.0931 16.806 29.2639 14.5003 27.7012 12.6306C27.3645 12.2278 27.4182 11.6284 27.8209 11.2918C28.2236 10.9551 28.8231 11.0088 29.1598 11.4115C30.9844 13.5946 31.9931 16.3939 32.0001 19.2939C32.0041 20.955 31.6818 22.567 31.0422 24.0859C30.3704 26.0307 30.6794 28.113 31.7552 29.845C32.0465 30.3172 31.8577 30.945 31.3704 31.196C30.4238 31.7274 29.3789 32.0002 28.3097 32.0003Z" fill="#6562E5"/>
<path d="M12.2894 13.8323C13.12 13.8323 13.7934 13.1593 13.7934 12.3291C13.7934 11.4989 13.12 10.8259 12.2894 10.8259C11.4588 10.8259 10.7854 11.4989 10.7854 12.3291C10.7854 13.1593 11.4588 13.8323 12.2894 13.8323Z" fill="white"/>
<path d="M6.74789 13.8323C7.57853 13.8323 8.25189 13.1593 8.25189 12.3291C8.25189 11.4989 7.57853 10.8259 6.74789 10.8259C5.91726 10.8259 5.2439 11.4989 5.2439 12.3291C5.2439 13.1593 5.91726 13.8323 6.74789 13.8323Z" fill="white"/>
<path d="M17.8304 13.8323C18.661 13.8323 19.3344 13.1593 19.3344 12.3291C19.3344 11.4989 18.661 10.8259 17.8304 10.8259C16.9998 10.8259 16.3264 11.4989 16.3264 12.3291C16.3264 13.1593 16.9998 13.8323 17.8304 13.8323Z" fill="white"/>
</svg>
