<svg width="37" height="36" viewBox="0 0 37 36" fill="none" xmlns="http://www.w3.org/2000/svg">
<rect x="0.5" width="36" height="36" rx="18" fill="white"/>
<path d="M23.5189 23.1301C21.9541 24.7005 20.3893 26.2706 18.8234 27.8398C18.6075 28.0561 18.3775 28.052 18.1621 27.836C17.6539 27.3257 17.1457 26.8155 16.6376 26.3053C15.623 25.2866 14.6084 24.2679 13.5938 23.249C13.2644 22.918 12.9348 22.5872 12.6053 22.2563C11.7262 21.3737 10.8472 20.4911 9.96922 19.6073M23.5189 23.1301L23.7314 23.3418C22.1666 24.9122 20.6018 26.4824 19.0358 28.0517L19.0357 28.0518C18.8907 28.197 18.7062 28.3019 18.4899 28.3C18.2748 28.298 18.0925 28.191 17.9497 28.0478L17.9495 28.0477C17.4429 27.5389 16.9362 27.0302 16.4295 26.5215C15.4134 25.5013 14.3973 24.4811 13.3813 23.4606L13.3812 23.4606C13.0518 23.1297 12.7222 22.7988 12.3926 22.4679C11.5136 21.5853 10.6344 20.7026 9.75639 19.8187M23.5189 23.1301L23.7314 23.3418C23.9249 23.1476 24.1185 22.9534 24.312 22.7592C25.1223 21.9463 25.9328 21.133 26.7415 20.3179C26.9213 20.1367 27.1042 19.9555 27.2883 19.7732C27.7702 19.2958 28.2593 18.8112 28.7172 18.3028C30.4785 16.3476 30.8111 13.3156 29.5071 11.0192L29.5071 11.0191C28.3825 9.03923 26.6608 7.92231 24.4271 7.72822L24.4011 8.0271L24.4271 7.72822C22.4837 7.55941 20.8065 8.23155 19.4126 9.59665L19.4126 9.5967C19.155 9.84911 18.8996 10.1057 18.6428 10.3636C18.5937 10.413 18.5445 10.4625 18.4952 10.5119M23.5189 23.1301C23.7124 22.9359 23.9059 22.7417 24.0994 22.5476C24.9098 21.7345 25.72 20.9215 26.5286 20.1066C26.7123 19.9214 26.8976 19.7378 27.083 19.5542L18.4952 10.5119M9.75639 19.8187C9.75639 19.8187 9.75639 19.8187 9.7564 19.8187L9.96922 19.6073M9.75639 19.8187L9.96922 19.6073M9.75639 19.8187C9.6207 19.6821 9.48067 19.5448 9.33904 19.4059C8.97307 19.0469 8.59636 18.6774 8.25612 18.2835L8.48314 18.0874M9.96922 19.6073C9.82756 19.4647 9.68393 19.3238 9.54027 19.1829C9.17757 18.8272 8.81472 18.4713 8.48314 18.0874M8.48314 18.0874L8.2561 18.2835M8.48314 18.0874C7.38341 16.8144 6.89622 15.3121 7.01836 13.6162C7.22649 10.7306 9.40574 8.57327 11.9293 8.11261C14.0349 7.72836 15.8607 8.33273 17.4015 9.84518C17.6455 10.0846 17.8867 10.3266 18.1322 10.5728C18.252 10.693 18.3727 10.8141 18.4953 10.9364L8.2561 18.2835M8.2561 18.2835C7.10318 16.9489 6.59143 15.3679 6.71913 13.5947L6.71913 13.5947C6.93768 10.5648 9.22512 8.30128 11.8754 7.81749L11.8754 7.81748C14.0823 7.41476 16.0052 8.05418 17.6117 9.63109C17.8567 9.87159 18.1 10.1156 18.3462 10.3626C18.3958 10.4122 18.4454 10.462 18.4952 10.5119M8.2561 18.2835L18.4952 10.5119M27.4707 17.4738L27.6865 17.6822L27.4707 17.4738C26.1976 18.7923 24.9019 20.0857 23.6039 21.3815C23.0632 21.9212 22.522 22.4614 21.982 23.0039L22.1946 23.2156L21.982 23.004C21.0263 23.9641 20.07 24.9234 19.1136 25.8829C18.9077 26.0895 18.7017 26.2961 18.4958 26.5028C18.4927 26.4997 18.4897 26.4967 18.4867 26.4937C18.2259 26.2327 17.9676 25.9742 17.7098 25.7154C16.9193 24.9212 16.1288 24.1269 15.3384 23.3325C14.2862 22.2751 13.2339 21.2177 12.1815 20.1606C11.8911 19.8688 11.6006 19.5782 11.3103 19.2879C10.7176 18.6951 10.1261 18.1035 9.53926 17.5054C7.76343 15.6955 7.68565 12.7535 9.378 10.8679L9.37801 10.8678C10.5301 9.58409 11.9612 9.04236 13.6571 9.23004L13.6571 9.23004C14.7962 9.35608 15.7637 9.85863 16.585 10.6921L16.585 10.6922C16.8984 11.0101 17.2147 11.3262 17.53 11.6413C17.6647 11.776 17.7992 11.9104 17.9333 12.0448L17.9333 12.0449C18.0817 12.1935 18.269 12.3068 18.4921 12.3079C18.7156 12.309 18.904 12.1971 19.0532 12.0485L19.0532 12.0485C19.2254 11.8769 19.3931 11.7058 19.5594 11.5362C19.9068 11.1818 20.2478 10.8339 20.6102 10.502L20.4077 10.2807L20.6103 10.502C21.6842 9.51859 22.944 9.08762 24.376 9.21442L24.376 9.21442C26.4542 9.39829 28.2727 10.9345 28.7094 13.0249C29.0665 14.7351 28.6622 16.2399 27.4707 17.4738Z" fill="black" stroke="black" stroke-width="0.6"/>
</svg>
